{"title":"Madagascar Europes Most Wanted 2012 Arabic 1080p x264 -alrmothe","uid":7835790,"size":4836256153,"categoryP":"video","categoryS":"hd___movies","magnet":"?xt=urn:btih:ba33c09eea0ef2f1b3f551d9a47e47311b550b55&amp;dn=Madagascar+Europes+Most+Wanted+2012+Arabic+1080p+x264+-alrmothe&amp;tr=udp%3A%2F%2Ftracker.openbittorrent.com%3A80&amp;tr=udp%3A%2F%2Fopen.demonii.com%3A1337&amp;tr=udp%3A%2F%2Ftracker.coppersurfer.tk%3A6969&amp;tr=udp%3A%2F%2Fexodus.desync.com%3A6969","seeders":1,"leechers":0,"uploader":".alrmothe","files":27,"time":1353185472,"description":".\n\n\n[color=green]Movies : Animation : HD1080p :Arabic[/color]\n\n\n\nMadagascar Europes Most Wanted 2012 Arabic 1080p x264 -alrmothe\n\n\n\n[img]http://img442.imageshack.us/img442/96/coveruah.jpg[/img]\n\n\n\n\n\n[img]http://img219.imageshack.us/img219/462/imdbt.png[/img]\n[color=red]IMDB:[/color] &lt;a href=&quot;\nhttp://www.imdb.com/title/tt1277953/&quot; rel=&quot;nofollow&quot; target=&quot;_NEW&quot;&gt;\nhttp://www.imdb.com/title/tt1277953/&lt;/a&gt;\n[color=green]Genre:[/color]Animation | Adventure | Comedy\n[color=green]Source:[/color]Blu-ray Disc\n[color=green]Language:[/color]Arabic\n[color=green]File size:[/color]4.48 GiB\n\nOverall bit rate:6871 Kbps\n\n[color=green]Duration:[/color]1h 33mn\n \nEncoded / Released By:alrmothe\n\n\n\n\n[img]http://i.imgur.com/fXeWi.png[/img]\n\n[color=red]Video Information[/color]\nFormat :Matroska\nFormat : AVC\nFormat profile:&lt;a class=&quot;__cf_email__&quot; href=&quot;/cdn-cgi/l/email-protection&quot; data-cfemail=&quot;430b2a242b030f766d73&quot;&gt;[email&amp;#160;protected]&lt;/a&gt;&lt;script cf-hash='f9e31' type=&quot;text/javascript&quot;&gt;\n/* &lt;![CDATA[ */!function(){try{var t=&quot;currentScript&quot;in document?document.currentScript:function(){for(var t=document.getElementsByTagName(&quot;script&quot;),e=t.length;e--;)if(t[e].getAttribute(&quot;cf-hash&quot;))return t[e]}();if(t&amp;&amp;t.previousSibling){var e,r,n,i,c=t.previousSibling,a=c.getAttribute(&quot;data-cfemail&quot;);if(a){for(e=&quot;&quot;,r=parseInt(a.substr(0,2),16),n=2;a.length-n;n+=2)i=parseInt(a.substr(n,2),16)^r,e+=String.fromCharCode(i);e=document.createTextNode(e),c.parentNode.replaceChild(e,c)}}}catch(u){}}();/* ]]&gt; */&lt;/script&gt;\nVideo Bit rate:6230 Kbps\nFrame Rate: 23.976 fps\nBit depth : 8 bits\nScan type : Progressive\nBits/(Pixel*Frame):0.130\nStream size:3.98 GiB(89%)\n[color=green]Resolution:1920x1040[/color]\n\n\n[color=navy]Audio Information:[/color]\nFormat : AC-3\nBit rate mode : Constant\nBit rate : 640 Kbps\nChannel(s) : 6 channels\nChannel positions:Front: L C R, Side:L R,LFE\nSampling rate : 48.0 KHz\nBit depth : 16 bits\nCompression mode : Lossy\nStream size:428 MiB(9%)\nLanguage:Arabic\n\n\n\nSUB:Arabic.sub\n\n\n\n\n[color=red]Screenshots[/color]\n &lt;a href=&quot;\nhttp://img267.imageshack.us/img267/6471/20407172.png&quot; rel=&quot;nofollow&quot; target=&quot;_NEW&quot;&gt;\nhttp://img267.imageshack.us/img267/6471/20407172.png&lt;/a&gt;\n &lt;a href=&quot;\nhttp://img690.imageshack.us/img690/492/18514356.png&quot; rel=&quot;nofollow&quot; target=&quot;_NEW&quot;&gt;\nhttp://img690.imageshack.us/img690/492/18514356.png&lt;/a&gt;\n &lt;a href=&quot;\nhttp://img27.imageshack.us/img27/3426/88481888.png&quot; rel=&quot;nofollow&quot; target=&quot;_NEW&quot;&gt;\nhttp://img27.imageshack.us/img27/3426/88481888.png&lt;/a&gt;\n &lt;a href=&quot;\nhttp://img22.imageshack.us/img22/3008/20833133.png&quot; rel=&quot;nofollow&quot; target=&quot;_NEW&quot;&gt;\nhttp://img22.imageshack.us/img22/3008/20833133.png&lt;/a&gt;\n\n\n[img]http://img820.imageshack.us/img820/7767/madagascareuropesmostwa.png[/img]\n\n\n\n[code] &lt;a href=&quot;\nhttp://p2pdl.com:2710/announce&quot; rel=&quot;nofollow&quot; target=&quot;_NEW&quot;&gt;\nhttp://p2pdl.com:2710/announce&lt;/a&gt;\nudp://tracker.1337x.org:80/announce &lt;a href=&quot;\nhttp://exodus.desync.com/announce&quot; rel=&quot;nofollow&quot; target=&quot;_NEW&quot;&gt;\nhttp://exodus.desync.com/announce&lt;/a&gt; &lt;a href=&quot;\nhttp://121.14.98.151:9090/announce&quot; rel=&quot;nofollow&quot; target=&quot;_NEW&quot;&gt;\nhttp://121.14.98.151:9090/announce&lt;/a&gt; &lt;a href=&quot;\nhttp://tracker.ex.ua/announce&quot; rel=&quot;nofollow&quot; target=&quot;_NEW&quot;&gt;\nhttp://tracker.ex.ua/announce&lt;/a&gt; &lt;a href=&quot;\nhttp://tracker.torrentbay.to:6969/announce&quot; rel=&quot;nofollow&quot; target=&quot;_NEW&quot;&gt;\nhttp://tracker.torrentbay.to:6969/announce&lt;/a&gt; &lt;a href=&quot;\nhttp://94.228.192.98/announce&quot; rel=&quot;nofollow&quot; target=&quot;_NEW&quot;&gt;\nhttp://94.228.192.98/announce&lt;/a&gt; &lt;a href=&quot;\nhttp://exodus.desync.com:6969/announce&quot; rel=&quot;nofollow&quot; target=&quot;_NEW&quot;&gt;\nhttp://exodus.desync.com:6969/announce&lt;/a&gt;\n[/code]\n\n\n\n\n\n\nYou can play movie on PlayStation 3 Media Server\n\n\n\n\n\n\n\n\n\n\n\n\nTrailer\n\n\n\n\n.","torrent":{"xt":"urn:btih:ba33c09eea0ef2f1b3f551d9a47e47311b550b55","amp;dn":"Madagascar+Europes+Most+Wanted+2012+Arabic+1080p+x264+-alrmothe","amp;tr":["udp%3A%2F%2Ftracker.openbittorrent.com%3A80","udp%3A%2F%2Fopen.demonii.com%3A1337","udp%3A%2F%2Ftracker.coppersurfer.tk%3A6969","udp%3A%2F%2Fexodus.desync.com%3A6969"],"infoHash":"ba33c09eea0ef2f1b3f551d9a47e47311b550b55","infoHashBuffer":{"type":"Buffer","data":[186,51,192,158,234,14,242,241,179,245,81,217,164,126,71,49,27,85,11,85]},"announce":[],"urlList":[]}}